<svg xmlns="http://www.w3.org/2000/svg" viewBox="0 0 512.005 512.005"><path d="M332.034 31.529c-7.776-23.936-33.504-37.056-57.472-29.28s-37.056 33.504-29.28 57.472l117.92 362.848c8.096 22.368 32.256 34.944 55.488 28.288 24.192-6.976 38.976-32.672 31.232-56.448-.288-.928-117.888-362.88-117.888-362.88z" fill="#ffc107"/><path d="M149.314 90.921c-7.808-23.968-33.536-37.088-57.472-29.28s-37.088 33.504-29.28 57.472l117.92 362.816c8.096 22.368 32.256 34.944 55.488 28.288 24.192-6.976 38.976-32.672 31.232-56.448-.288-.896-117.888-362.848-117.888-362.848z" fill="#4caf50"/><path d="M480.482 332.041c23.968-7.776 37.056-33.504 29.28-57.472s-33.504-37.056-57.472-29.28L89.442 363.241c-22.368 8.096-34.944 32.256-28.288 55.488 6.976 24.192 32.672 38.976 56.448 31.232.928-.32 362.88-117.92 362.88-117.92z" fill="#ec407a"/><path d="M165.058 434.537c23.616-7.68 54.048-17.568 86.72-28.192-7.68-23.616-17.568-54.048-28.192-86.72l-86.72 28.192 28.192 86.72z" fill="#472a49"/><path d="M347.81 375.145c32.8-10.656 63.264-20.544 86.72-28.192-7.68-23.616-17.568-54.08-28.192-86.752l-86.72 28.192 28.192 86.752z" fill="#cc2027"/><path d="M421.09 149.321c23.968-7.776 37.056-33.504 29.28-57.472s-33.504-37.056-57.472-29.28L30.082 180.489c-22.4 8.096-34.976 32.256-28.288 55.488 6.976 24.192 32.672 38.944 56.448 31.232.896-.288 362.848-117.888 362.848-117.888z" fill="#2196f3"/><path d="M105.666 251.785c23.616-7.68 54.08-17.568 86.752-28.192-10.656-32.768-20.544-63.232-28.192-86.72l-86.72 28.192 28.16 86.72z" fill="#1a937d"/><path d="M288.418 192.425c32.8-10.656 63.264-20.544 86.752-28.192-10.656-32.8-20.576-63.264-28.192-86.752l-86.752 28.192 28.192 86.752z" fill="#65863a"/></svg>